<?xml version="1.0" encoding="utf-8"?>
<!-- Generator: Adobe Illustrator 25.0.0, SVG Export Plug-In . SVG Version: 6.00 Build 0)  -->
<svg version="1.1" id="Layer_1" xmlns="http://www.w3.org/2000/svg" x="0px" y="0px"
	 viewBox="0 0 496 586" style="enable-background:new 0 0 496 586;" xml:space="preserve">
<style type="text/css">
	.st0{fill-rule:evenodd;clip-rule:evenodd;fill:#524F4F;fill-opacity:0.251;}
	.st1{fill-rule:evenodd;clip-rule:evenodd;fill:#54290D;}
	.st2{fill-rule:evenodd;clip-rule:evenodd;fill:#683716;}
	.st3{fill-rule:evenodd;clip-rule:evenodd;fill:#9E653F;}
	.st4{fill-rule:evenodd;clip-rule:evenodd;fill:#401F08;}
	.st5{fill-rule:evenodd;clip-rule:evenodd;fill:#A37B33;}
	.st6{fill-rule:evenodd;clip-rule:evenodd;fill:#8A6623;}
	.st7{fill-rule:evenodd;clip-rule:evenodd;fill:#826227;}
	.st8{fill-rule:evenodd;clip-rule:evenodd;fill:#916C27;}
	.st9{fill-rule:evenodd;clip-rule:evenodd;fill:#C79F56;}
	.st10{fill-rule:evenodd;clip-rule:evenodd;fill:#8A6725;}
	.st11{fill-rule:evenodd;clip-rule:evenodd;fill:#086DC9;}
	.st12{fill-rule:evenodd;clip-rule:evenodd;fill:#064D8F;}
	.st13{fill-rule:evenodd;clip-rule:evenodd;fill:#084985;}
	.st14{fill-rule:evenodd;clip-rule:evenodd;fill:#F7DB9A;}
	.st15{fill-rule:evenodd;clip-rule:evenodd;fill:#E3C378;}
	.st16{fill-rule:evenodd;clip-rule:evenodd;fill:url(#SVGID_1_);}
	.st17{fill-rule:evenodd;clip-rule:evenodd;fill:#946F29;}
	.st18{fill-rule:evenodd;clip-rule:evenodd;fill:#E8AE25;}
	.st19{fill-rule:evenodd;clip-rule:evenodd;fill:#F7D78C;}
	.st20{fill-rule:evenodd;clip-rule:evenodd;fill:#C28E13;}
	.st21{fill-rule:evenodd;clip-rule:evenodd;fill:#D19A1B;}
	.st22{fill-rule:evenodd;clip-rule:evenodd;fill:#FFFFFF;}
	.st23{fill-rule:evenodd;clip-rule:evenodd;fill:url(#SVGID_2_);}
	.st24{fill-rule:evenodd;clip-rule:evenodd;fill:#210C01;}
	.st25{fill-rule:evenodd;clip-rule:evenodd;fill:url(#SVGID_3_);}
	.st26{fill-rule:evenodd;clip-rule:evenodd;fill:#F0EDED;}
	.st27{fill-rule:evenodd;clip-rule:evenodd;fill:#BDBDBD;}
	.st28{fill-rule:evenodd;clip-rule:evenodd;fill:#E6C578;}
	.st29{fill-rule:evenodd;clip-rule:evenodd;fill:#6B3318;}
	.st30{fill-rule:evenodd;clip-rule:evenodd;fill:#572913;}
	.st31{fill-rule:evenodd;clip-rule:evenodd;fill:#634713;}
	.st32{fill-rule:evenodd;clip-rule:evenodd;fill:#FCE9BD;}
	.st33{fill-rule:evenodd;clip-rule:evenodd;fill:#806126;}
	.st34{fill-rule:evenodd;clip-rule:evenodd;fill:#8F4C2B;}
	.st35{fill-rule:evenodd;clip-rule:evenodd;fill:#4F3608;}
	.st36{fill-rule:evenodd;clip-rule:evenodd;fill:#E6E6E6;fill-opacity:0.7882;}
	.st37{fill-rule:evenodd;clip-rule:evenodd;fill:#A18440;}
	.st38{fill-rule:evenodd;clip-rule:evenodd;fill:#A8A6A6;}
	.st39{fill-rule:evenodd;clip-rule:evenodd;fill:#3A90E0;}
	.st40{fill:#053F75;}
	.st41{fill:none;}
	.st42{fill-rule:evenodd;clip-rule:evenodd;fill:#C7C5C5;}
</style>
	<g id="Layer_x0020_1">
	<g id="_405916568">
		<path class="st0" d="M300.2,495.9c100.5,0,181.9,18.6,181.9,41.5c0,22.9-81.5,41.5-181.9,41.5c-100.5,0-181.9-18.6-181.9-41.5
			C118.3,514.5,199.8,495.9,300.2,495.9z"/>
		<path class="st1" d="M238.2,503.2c-16.5,2-147.7-16.5-200-157c-21.1-52.9,59-118.9,110.3-94.1c38.6,23.6,77.8,189,132,232.6
			C265.2,488.1,253.5,500,238.2,503.2z"/>
		<path class="st2" d="M151.9,254.6c37.6,30.6,76,187.8,128.7,230.2c-14.7,3.1-26.1,14.3-40.6,18c-76.8-24.2-152.5-77.8-187.7-171.7
			C46.6,294.1,107.2,236.3,151.9,254.6z"/>
		<path class="st3" d="M179.8,321.2c-22.7-4.2-45.4-5.8-67.9-5.4c-16.4,0.3-31.5,1.7-48.7,4.8C102.1,318.1,140.8,318.2,179.8,321.2z
			"/>
		<path class="st3"
			  d="M136.5,275.1c-9,21.2-15.3,43.1-19.7,65.2c-3.2,16-5,31.1-5.7,48.6C117,350.3,125.4,312.5,136.5,275.1z"/>
		<path class="st3" d="M191.4,350.8c-22.7-4.3-45.4-5.8-67.9-5.4c-16.4,0.3-31.5,1.7-48.8,4.8C113.7,347.7,152.4,347.8,191.4,350.8z
			"/>
		<path class="st3"
			  d="M161.4,295.6c-9,21.3-15.3,43.1-19.7,65.2c-3.2,16.1-5,31.2-5.7,48.6C141.8,370.8,150.2,333,161.4,295.6z"/>
		<path class="st3"
			  d="M208,381.2c-22.6-4.2-45.4-5.8-67.9-5.4c-16.4,0.3-31.5,1.7-48.8,4.7C130.4,378.1,169.1,378.3,208,381.2z"/>
		<path class="st3"
			  d="M186,322.2c-9,21.3-15.3,43.1-19.7,65.2c-3.2,16.1-5,31.2-5.7,48.6C166.4,397.4,174.8,359.6,186,322.2z"/>
		<path class="st3"
			  d="M224.7,411.6c-22.6-4.2-45.4-5.8-67.9-5.4c-16.4,0.3-31.5,1.7-48.7,4.8C147,408.5,185.7,408.7,224.7,411.6z"
		/>
		<path class="st3"
			  d="M211,348.2c-9,21.2-15.3,43.1-19.7,65.2c-3.2,16-5,31.1-5.7,48.6C191.5,423.4,199.9,385.6,211,348.2z"/>
		<path class="st4" d="M180,321.2c-39.5-6.1-78.4-6.3-116.8-0.7C102.1,318.1,141.1,318.3,180,321.2z"/>
		<path class="st4" d="M136.6,274.9c-14.3,37.3-22.8,75.3-25.5,114.1C117,350.3,125.5,312.3,136.6,274.9z"/>
		<path class="st4" d="M191.7,350.8c-39.5-6.1-78.5-6.3-116.9-0.7C113.7,347.7,152.7,347.9,191.7,350.8z"/>
		<path class="st4" d="M161.5,295.3c-14.3,37.3-22.8,75.3-25.5,114C141.8,370.8,150.3,332.8,161.5,295.3z"/>
		<path class="st4" d="M208.3,381.3c-39.5-6.1-78.5-6.3-116.9-0.7C130.4,378.1,169.3,378.3,208.3,381.3z"/>
		<path class="st4" d="M186,321.9c-14.3,37.3-22.8,75.3-25.5,114C166.4,397.4,174.9,359.3,186,321.9z"/>
		<path class="st4" d="M224.9,411.7c-39.5-6.1-78.5-6.3-116.8-0.7C147,408.5,186,408.7,224.9,411.7z"/>
		<path class="st4" d="M211.1,347.9c-14.3,37.3-22.8,75.3-25.5,114.1C191.5,423.4,200,385.4,211.1,347.9z"/>
		<path class="st5" d="M373.6,343.8c-4-14.9-8.1-42.2-12.1-57c41.5,8.1,72.3,35.7,84.5,47.1c3.6,6.6,0.3,33.6-6.3,36.7
			C413.6,373.5,384.3,352.3,373.6,343.8z"/>
		<path class="st6"
			  d="M429.3,370.6c-20.9-2.2-36.9-15.9-47.6-24c-2.2-9.3-2.3-22-4.5-31.3C393.9,337.4,405.2,361.2,429.3,370.6z"/>
		<path class="st2" d="M262.1,520.1c-13.2-5.6-24.2-9.2-37.4-14.8c-18.3,2.2-30.3,13.7-36.9,22.6c-6.2,9.6,0.8,14.3,12.1,10
			c-5.4,10.3-3,14.6,17,5.5C203.4,573.6,260.4,541.2,262.1,520.1z"/>
		<path class="st1" d="M262.1,520.1c-13.2-5.6-24.2-9.2-37.4-14.8c-3.5,0.4-6.7,1.2-9.7,2.2c11.8,11.7,26,19.9,41.1,25.3
			C259.5,528.4,261.8,524.1,262.1,520.1z"/>
		<path class="st2" d="M337.8,519.5c13.3-5.6,24.2-9.2,37.4-14.8c18.3,2.2,30.3,13.7,36.9,22.6c6.2,9.6-0.8,14.3-12.1,10
			c5.4,10.3,3,14.5-17,5.5C396.5,573,339.5,540.6,337.8,519.5z"/>
		<path class="st1" d="M337.8,519.5c10.8-4.6,20-7.8,30.3-11.9l21.8,1.2l0,0c-9.9,11.2-25.7,20.1-44.1,25.6
			C341.3,529.4,338.2,524.2,337.8,519.5z"/>
		<path class="st5" d="M251.6,271.6c37.2,3.5,59.4-2.6,96.6,1c35.4,31.5,75.7,136.2,59.8,213.8c-16.4,56.2-197.5,64.2-208.9-5.5
			C182.4,416.6,228.6,328.2,251.6,271.6z"/>
		<path class="st7" d="M262.3,272.3c31,1.6,52.4-3,85.9,0.2c5.3,4.7,10.7,11.1,16,18.8c-35.1,19-76,18.4-121.7,1.6
			c1.8-4.1,3.5-8.1,5.1-11.9L262.3,272.3z"/>
		<path class="st7" d="M358.4,283.4c2.9,3.7,5.9,7.8,8.8,12.3c14.5,30.3,21.9,58.4,21.4,85.9c-5.1,13.1-19.2,15.1-25.2,0.7
			c-0.4-22.5-3.3-52.2-20.2-94.6C348,286,353.1,284.6,358.4,283.4z"/>
		<path class="st7" d="M234.8,311c3.2-7.5,6.3-14.7,9.3-21.6c20.6,27.6,25.2,60.3,21.6,95.8c-4.1,16-24.3,16-25.2,0.7
			C243,361.2,244.6,335.8,234.8,311z"/>
		<path class="st8" d="M409.9,420.9c2.5,22.5,2.2,45-2,65.5c-16.4,56.2-197.5,64.2-208.9-5.5c-2-7.8-3.1-15.9-3.4-24.3
			C238.3,543.1,410,516.1,409.9,420.9z"/>
		<path class="st9" d="M347.7,525.7c-29.3,7.4-64.9,7.3-96.2-0.7c1.4-6.4,2.3-13.7,3.1-21.6c36.2,10.7,79.5,5.5,111.1-12.8
			C362.4,505.2,356.4,517.7,347.7,525.7z"/>
		<path class="st5" d="M233.2,341c4-14.8,8.6-40.5,12.6-55.3c-25.7,2.7-70.9,20.7-82.7,44.8c-8.3,16.9,20.4,59.2,39.1,73.9
			c6.2-9.8,14.7-20.5,20.8-30.4c-3.1-5.6-11.1-16.5-10-18.8C215.4,349.5,225.8,346.8,233.2,341z"/>
		<path class="st10" d="M238,320.3c2.2-10.4,4.5-21.5,6.6-30.2c-0.9-1.3-1.9-2.6-2.9-3.9c-0.7,0.1-1.5,0.3-2.2,0.4
			c-5.4,1.2-8.6,1.6-13.5,3.2C232.6,299.4,235.1,310.4,238,320.3z"/>
		<path class="st5" d="M441.1,297.7c-15.8,24.7-29.2,51.3-5.9,73.2c28.1,0.7,38.7-29.7,30.9-72.8
			C459.7,296.2,449.9,295.6,441.1,297.7z"/>
		<path class="st11" d="M393.4,350.3c15.1,42.4,23.4,93.3,14.6,136c-16.4,56.2-197.5,64.2-208.9-5.5c-10-38.8,2.9-86.4,19.7-130.5
			C285.5,376.1,343.8,376.3,393.4,350.3z"/>
		<path class="st12" d="M200.3,410.1c3-14.2,7.3-28.6,12.2-42.8c10.2-4.8,27.4,8.9,23,18.1c-1.1,2.7-6.8-3.9-14.3-2.7
			c9.9,5.7,12.7,6.4,11.3,11.5c-1.5,4.5-11.1-0.1-17.7,2.4c8.6-0.2,16.6,1.9,13.5,10.4c-3.2,3.7-15.8,1.5-27.6,3.4
			C200.6,410.3,200.4,410.2,200.3,410.1z"/>
		<path class="st12" d="M411.3,438.2c0.8,16.6-0.2,32.9-3.3,48.1c-16.4,56.2-197.5,64.2-208.9-5.5c-3.4-13.3-4.2-27.7-3-42.6
			C232.2,532.8,393,524,411.3,438.2z"/>
		<path class="st13" d="M362.4,362.8c8.2-2.4,16.3-5.4,24.1-9.1c1.6,9.4,2.3,18.6,2.2,27.8c-5.1,13.1-19.2,15.1-25.2,0.7
			C363.3,376.3,363,369.9,362.4,362.8z"/>
		<path class="st13" d="M242.4,358.5c8.3,2.5,16.4,4.6,24.5,6.3c0,6.7-0.4,13.6-1.1,20.5c-4.1,16-24.3,16-25.2,0.7
			C241.4,376.8,242.2,367.6,242.4,358.5z"/>
		<path class="st14" d="M205.8,376.3c3.7-25.1,35.5-5,29.7,7.1c-1.1,2.7-6.8-3.9-14.3-2.7c9.9,5.7,12.7,6.4,11.3,11.5
			c-1.5,4.5-11.1-0.1-17.7,2.4c8.6-0.2,16.6,1.9,13.5,10.4c-3.2,3.7-15.8,1.5-27.5,3.4c-7.6-5-6.9-14.4-0.3-16.9
			C197.4,386.1,196.9,378.3,205.8,376.3z"/>
		<path class="st15" d="M228.9,402c-0.1,0.9-0.3,1.9-0.7,3c-3.2,3.7-15.8,1.5-27.5,3.4c-4-2.6-5.7-6.5-5.4-9.9
			c0.5,2.9,2.5,5.2,5.8,5.9C205,406.4,224.7,406.7,228.9,402z"/>
		<path class="st15"
			  d="M231.3,393.6c-3.1,1.8-10.9-1-16.6,0.9c-2.6-0.3-2.6,0-5.2-0.2c8.2-4.4,15.4-0.9,21.8-0.9L231.3,393.6z"/>
		<path class="st15" d="M234.3,384c-2.2-0.1-7.1-4.3-13.2-3.4c-3-1.6-6.3-3-9.5-4.5C221,376.4,229,378.5,234.3,384z M227.1,384.1
			c2.5,1.4,4.1,2.5,5,3.7C230.6,386.4,228.9,385.2,227.1,384.1z"/>
		<path class="st11" d="M243.8,285c-6.2,1.4-12,2.9-17.5,4.8c21.4,30.9,19.7,63.5,16.5,95.1c0.9,15.3,21.1,15.3,25.2-0.7
			C271.7,347.2,266.6,313.3,243.8,285z"/>
		<path class="st11" d="M363.3,282.5c-6.1,1.4-12,2.9-17.5,4.8c17,42.4,19.9,72.1,20.2,94.6c6,14.4,20.1,12.4,25.2-0.7
			C391.7,349.8,382.1,317.8,363.3,282.5z"/>

		<linearGradient id="SVGID_1_" gradientUnits="userSpaceOnUse" x1="5210.7935" y1="4410.5596" x2="5587.6938"
						y2="-12.5703" gradientTransform="matrix(2.834646e-02 0 0 -2.834646e-02 142.8331 231.6787)">
			<stop offset="0" style="stop-color:#A37B33"/>
			<stop offset="1" style="stop-color:#A37B33"/>
		</linearGradient>
		<path class="st16" d="M442.3,226.5c-4.2,40.2-65.9,72.1-141.4,72.1c-64.3,0-118.6-23.1-135.9-54.8c-5.2,0.2-11.8,3.9-14,5.5
			c-2.9-11.1,2.6-20.7,8.2-26.7c-6.6,1.1-10.9,4.5-21.8,9c2-36.5,20.7-57.2,52.3-57c-0.3-4.1-0.5-8.3-0.5-12.6
			c0-67.8,47.6-122.7,106.2-122.7c58.7,0,106.3,54.9,106.3,122.7c0,2.1-0.1,4.1-0.1,6.2c24.9-5.2,49.1,8.8,61.4,39.9
			c-8.6-1.2-13.3-1.7-22.9-0.5c7,2.7,12.7,7.9,16.4,16.9C451.5,224.1,446.7,224.4,442.3,226.5z"/>
		<path class="st17" d="M189.7,174.6c-0.3-4.1-0.5-8.3-0.5-12.6c0-14.3,2.1-27.9,6-40.7c36.3-5.5,72.7-11,109-16.6
			c30.2,4.5,60.4,9,90.6,13.5c4.5,13.6,7,28.3,7,43.8c-11.9-44.5-157.7-17.7-182.2-3.9c11.1,3,24.6,16.1,29.5,25.6
			C230.4,173.1,210.5,171.5,189.7,174.6z"/>
		<path class="st18" d="M276.5,36.5c-68.5,13.7-87,68.3-90.6,115.1c73.4-28.6,189.8-44.6,214.1-26.8
			C387.4,62.7,337.4,25.7,276.5,36.5z"/>
		<path class="st18" d="M290.2,28.8c-9.7-2.9-26.5,0-32.4,6.1c-0.2,0.2-0.1,6.2-0.2,6.7c46.8,19.6,65.2,46.2,61.5,78.2
			c13.4-0.9,26.7-1.7,40-2.5C354.3,76.6,330.5,40.7,290.2,28.8z"/>
		<path class="st19" d="M290.2,28.8c-9.7-2.9-26.5,0-32.4,6.1c0,0-0.1,0.3-0.1,0.6c7.1-4.5,17.2-8.4,29.8-6
			c33.2,9.1,54.3,35.7,65.2,65.5c1.2,2.2,2.4,4.4,3.6,6.5C347.8,67.6,325.2,39.2,290.2,28.8z"/>
		<path class="st20" d="M257.7,34.9c-0.2,0.2-0.1,6.2-0.2,6.7c37.4,13.3,63.8,44.3,61.9,74.8c4.4,0.7,9,1.3,14.2,2
			C323.2,69.7,289.9,41.7,257.7,34.9z"/>
		<path class="st21" d="M400.5,144.1c93.6-84.1-150.7-54.5-214.7,7.5C267,126.2,400,99.6,400.5,144.1z"/>

		<ellipse transform="matrix(0.9553 -0.2955 0.2955 0.9553 -39.4262 95.4315)" class="st22" cx="296" cy="178.2"
				 rx="20.6" ry="34.2"/>

		<radialGradient id="SVGID_2_" cx="2632.4604" cy="3097.0117" r="781.0128"
						gradientTransform="matrix(1.836337e-02 -4.022787e-03 -6.691153e-03 -3.054387e-02 267.0762 284.5959)"
						gradientUnits="userSpaceOnUse">
			<stop offset="0" style="stop-color:#C46A4C"/>
			<stop offset="1" style="stop-color:#331405"/>
		</radialGradient>
		<path class="st23" d="M289.5,155.6c7.9-1.8,16.7,7.5,19.6,20.7c2.9,13.2-1.2,25.3-9.1,27c-7.9,1.7-16.7-7.5-19.6-20.7
			C277.5,169.4,281.5,157.3,289.5,155.6z"/>

		<ellipse transform="matrix(0.9849 -0.1729 0.1729 0.9849 -26.6524 53.7958)" class="st24" cx="295.5" cy="179.9"
				 rx="5.9" ry="9.9"/>

		<ellipse transform="matrix(0.2955 -0.9553 0.9553 0.2955 86.4845 470.2728)" class="st22" cx="362.1" cy="176.5"
				 rx="31.6" ry="19"/>

		<radialGradient id="SVGID_3_" cx="-1512.1608" cy="1976.0035" r="646.9865"
						gradientTransform="matrix(1.553995e-02 0 0 -2.834646e-02 378.5455 231.6787)"
						gradientUnits="userSpaceOnUse">
			<stop offset="0" style="stop-color:#7F412A"/>
			<stop offset="1" style="stop-color:#351506"/>
		</radialGradient>
		<path class="st25" d="M355.7,151.3c7.9,0.9,13.5,12.1,12.6,25.3c-0.9,13.5-8.2,23.9-16.3,23.4c-3.9-0.3-7.3-3-9.6-7.4
			c-1.3-6.3-0.9-13.9,1.6-21.7C346.5,162.6,350.8,155.8,355.7,151.3z"/>
		<path class="st26" d="M319.5,229.3c11.3-1.1,22.7-2.2,34-3.3c1.6,10.8-0.1,21-6.1,30.6c-5.9,0.5-11.7,1.1-17.5,1.6
			C328.4,248.5,324.8,238.9,319.5,229.3z"/>
		<path class="st27" d="M335.2,227.8l4.6-0.5c1.8,7.6,1.4,17-0.4,21.8C339.2,242.1,338.5,235,335.2,227.8z"/>
		<path class="st14" d="M338.5,206.5c7.7-1.7,15.4-3.5,23.1-5.2c5.5-3.3,11.4-6.1,16.3-8.8c28.2-15.7,48,60.3-39.5,36.8
			c-32,14.1-45.7,17.7-63.3,15.1c-25.2-3.7-58.6-41.6-20.7-50.6C276.1,188.7,307.2,198.9,338.5,206.5z"/>
		<path class="st28" d="M401.2,204.4c4.3,16.4-9,39.3-62.7,24.9c-32,14.1-45.7,17.7-63.3,15.1c-14.1-2.1-30.7-14.8-36-27.2
			c23,21.7,55.4,25.9,98.3,10.4C372.2,229.5,398.3,225.1,401.2,204.4z"/>
		<path class="st29"
			  d="M338.5,223.1c-11.3,0.6-37-19.8-28.3-26.2c9.2-6.9,42.7-10.3,55-2.9C374.8,199.6,351.8,222.4,338.5,223.1z"
		/>
		<path class="st30" d="M338.5,223.1c-11.1,0.6-35.9-18.9-28.9-25.8c18.3,26.5,47.2,20.6,57.8,1.2
			C366.7,207.1,349.4,222.5,338.5,223.1z"/>
		<path class="st5"
			  d="M202.1,161.5c2.5-3.4,5-6.9,7.5-10.3c2.4-22-23.1-45.9-58.5-37.1C154.2,155.7,186.6,169.6,202.1,161.5z"/>
		<path class="st17" d="M202.1,161.5c2.5-3.4,5-6.9,7.5-10.3c1.8-16.7-12.5-34.5-34.9-38.3c36.3,20.6,35.7,55.7-1.8,44.2
			C183.1,164.2,194.6,165.4,202.1,161.5z"/>
		<path class="st31" d="M194.3,156.6c-0.3-0.4-1.6-3.8-1.4-4c0.3-0.3,5.7-2,6.3-2.9c1.5-14.5-15.2-30.2-38.5-24.4
			C162.8,152.8,184.1,161.9,194.3,156.6z"/>
		<path class="st14" d="M469,304.2c-9.5,2.1-17.1,1.5-27.9-3.1c-15.5-14.6-1.8-34.5-6.9-53.5c2-5,9.2-5.6,14.7-0.5
			c4.3,4.2,4.1,10.6,2.8,15.8C471.5,266,476.8,285.8,469,304.2z"/>
		<path class="st32" d="M434.2,247.6C434.2,247.6,434.2,247.6,434.2,247.6c2-5.1,9.1-5.6,14.7-0.5c3.8,3.8,4.1,9.3,3.2,14.1
			C451.9,248.3,443.7,242,434.2,247.6z"/>
		<path class="st15" d="M469,304.2c-7.1,1.6-15.1,1.9-23.5-1.4c11.3-2.8,3.7-11.3,3.7-12.5c0.1-6.7-0.2-12.8-3.9-16.3
			c2-3.6,4.1-7.3,6.3-11.1l17.4,11.6C473.6,282.5,473.5,293.6,469,304.2z"/>
		<path class="st33" d="M354.9,269.4c-17,14.7-36.3,16.3-51.8,2.2C320.3,277.4,340.9,276,354.9,269.4z"/>
		<path class="st34" d="M328.1,193.9c9-3.8,32.9-2.6,35,2.4C355.1,193.5,339.4,192.3,328.1,193.9z"/>
		<path class="st35" d="M255.7,164.6c0.5-24.9,30.3-48.3,52.1-22.6C286.1,132.8,264.6,145.2,255.7,164.6z"/>
		<path class="st35" d="M395.1,158.7c-0.4-20.5-25-39.8-42.9-18.6C370,132.5,387.8,142.6,395.1,158.7z"/>
		<path class="st36" d="M296.6,164.3c2.1,0,3.9,2.2,4.2,4.9c0.3,2.7-1.2,5-3.3,5c-2.1,0-3.9-2.2-4.2-4.9
			C293.1,166.5,294.5,164.3,296.6,164.3z"/>
		<path class="st36" d="M291.4,184.8c0.8,0,1.6,0.9,1.7,1.9c0.1,1.1-0.5,2-1.3,2c-0.8,0-1.6-0.9-1.6-1.9
			C290,185.7,290.6,184.8,291.4,184.8z"/>

		<ellipse transform="matrix(4.051648e-02 -0.9992 0.9992 4.051648e-02 164.4065 522.2279)" class="st24" cx="354.1"
				 cy="175.5" rx="9.9" ry="5.9"/>
		<path class="st36" d="M359.3,160.9c2,0.4,3.4,3,3,5.7c-0.3,2.7-2.2,4.6-4.3,4.2c-2-0.4-3.4-2.9-3-5.7
			C355.4,162.4,357.3,160.5,359.3,160.9z"/>
		<path class="st36" d="M349.1,179.5c0.8,0.2,1.3,1.2,1.2,2.2c-0.1,1.1-0.9,1.8-1.7,1.6s-1.4-1.2-1.2-2.2
			C347.6,180,348.3,179.3,349.1,179.5z"/>
		<circle class="st37" cx="270.5" cy="206.2" r="2"/>
		<circle class="st37" cx="387.6" cy="200.9" r="1.5"/>
		<circle class="st37" cx="277.2" cy="212.8" r="2"/>
		<circle class="st37" cx="392.3" cy="204.2" r="1.5"/>
		<circle class="st37" cx="267.7" cy="214.8" r="2"/>
		<circle class="st37" cx="386.7" cy="206.5" r="1.5"/>
		<circle class="st38" cx="254.4" cy="383.7" r="6.2"/>
		<circle class="st38" cx="379.3" cy="372" r="5.7"/>
		<path class="st11" d="M282.7,407.7c22.1,4.8,47.5,0.9,68.2-4.2c0,19.1,0,38.2,0,57.3c-16.9,24.7-51.8,26.8-68.2,4.2
			C282.7,445.9,282.7,426.8,282.7,407.7z"/>
		<path class="st12" d="M347.7,465c-17.8,20.6-49.5,21.2-65,0c0-14.8,0-29.5,0-44.3c20.8,4.6,41.9,4.5,63.4-0.3
			c-8.8,8.3-31.6,14.7-47.7,13.1C297.5,477.1,315.1,474.5,347.7,465z"/>
		<path class="st39" d="M282.7,407.7c22.1,4.8,47.5,0.9,68.2-4.2c0,19.1,0,38.2,0,57.3c-1.8-16.9-1.8-35.7-3.6-52.6
			c-21.1,5.8-47.7,7-64.6-0.1V407.7z"/>
		<path class="st40" d="M282.9,406.8c10.9,2.4,22.7,2.6,34.3,1.6c11.7-1,23.2-3.3,33.5-5.8l1.2-0.3v1.2v57.3v0.3l-0.2,0.3
			c-3.2,4.6-7,8.5-11.2,11.6c-7.4,5.4-16.1,8.4-24.7,8.7c-8.6,0.3-17.2-1.9-24.4-6.8c-3.5-2.4-6.7-5.5-9.4-9.2l-0.2-0.3V465v-57.3
			v-1.2L282.9,406.8z M317.4,410.3c-11.4,1-23,0.8-33.8-1.4v55.8c2.6,3.4,5.5,6.2,8.8,8.5c6.8,4.7,15,6.8,23.2,6.5
			c8.2-0.3,16.6-3.1,23.7-8.4c3.9-2.9,7.5-6.5,10.6-10.9v-55.8C339.9,407.1,328.7,409.3,317.4,410.3z"/>
		<path class="st41" d="M282.7,420.7c22.4,6.9,45.2,4.9,68.2-2.7"/>
		<path class="st40" d="M283,419.7c11.1,3.4,22.3,4.6,33.5,4.1c11.3-0.6,22.7-3,34.1-6.8l0.6,1.8c-11.6,3.9-23.1,6.3-34.6,6.9
			s-22.9-0.7-34.2-4.2L283,419.7z"/>
		<path class="st22" d="M334.5,464.4l-11.1,0.2l-1.5-6.2l-5.8,0.1l-1.1,7.2l-10.8,0.2l7.9-35.7l14.1-0.2L334.5,464.4z M321,449.1
			l-2.1-9.8l-1.9,9.8L321,449.1z"/>
		<path class="st42" d="M305.7,465.8l-1.6,0l0.3-1.5C304.8,464.9,305.3,465.4,305.7,465.8z M311.3,433.3l0.7-3.1l14.1-0.2l0.1,0.4
			C321.4,431.7,316.3,432.7,311.3,433.3z"/>
		<path class="st7" d="M218.7,350.3c-2,1.6-3.9,3.3-5.9,4.9c-1.1-6.8-4.3-12.7-9.3-17.9c8.8,0.6,17-1.5,24.9-4.7
			C223.6,338.8,220.5,344.6,218.7,350.3z"/>
		<path class="st14" d="M454.2,299.1c-2.2-2-1.6-7.5,0.5-10.1c5.8-1.6,12.3,0.7,17.9,1.4c2.7,3.3-0.6,11.5-3,11.9
			C463.3,301.6,460.5,299.8,454.2,299.1z"/>
		<path class="st15" d="M454,290c0.2-0.4,0.4-0.7,0.7-1c5.8-1.6,12.3,0.7,17.9,1.4c0.5,0.7,0.6,1.2,0.7,2.2
			C466.2,292.5,460.2,291.5,454,290z"/>
		<path class="st14" d="M451.4,288.7c-1.4-3.3-1.8-9.4,0.5-12.1c6.2-1.7,15.4-0.2,21.4,0.6c2.7,4.3,2.2,10.8-0.3,13.8
			C466.1,290.2,458.3,289.4,451.4,288.7z"/>
		<path class="st15" d="M450.4,284.7c-0.4-3-0.1-6.3,1.5-8.1c6.2-1.7,15.4-0.2,21.4,0.6c0.5,0.9,0.7,1,1,2
			c-9.5,1.2-13.7-0.7-20.9-0.8C451.4,280,451.1,283.3,450.4,284.7z"/>
		<path class="st14" d="M451.2,276.2c-2.7-3.5-3.9-7.4-0.3-12.8c7.4-2,14.7-2.5,21.7-1.6c2.6,6.7,3.1,9.8,0.7,15.6
			C466,277.1,459.3,277.1,451.2,276.2z"/>
		<path class="st32" d="M448.8,268.8c0.1-1.6,1-3.5,2.2-5.3c7.4-2,14.7-2.5,21.7-1.6c1.2,3,1.8,5.9,1.9,8.7c-0.7-1.9-1.5-3.8-3-5.6
			c-6.5-2-12.8-1.3-18.9,0.5C450.8,266.3,449.7,267.2,448.8,268.8z"/>
	</g>
</g>
</svg>
